<svg data-v-423bf9ae="" xmlns="http://www.w3.org/2000/svg" viewBox="0 0 1321.3608875603911 193" class="fontAboveSlogan"><!----><!----><!----><g data-v-423bf9ae="" id="cefc582f-1fcb-4adb-a3a2-445722db7518" fill="#36231D" transform="matrix(7.994670097945718,0,0,7.994670097945718,359.5510531782227,-56.94194451911754)"><path d="M2.45 19.18L2.45 19.18Q1.78 19.18 1.46 18.77L1.46 18.77L1.46 18.77Q1.15 18.37 1.15 17.51L1.15 17.51L1.15 17.51Q1.15 16.84 1.49 14.74L1.49 14.74L1.49 14.74Q1.83 12.64 2.34 9.80L2.34 9.80L1.61 8.83L1.61 8.83Q2.11 8.46 2.72 8.22L2.72 8.22L2.72 8.22Q3.33 7.98 3.84 7.98L3.84 7.98L3.84 7.98Q4.38 7.98 4.62 8.19L4.62 8.19L4.62 8.19Q4.86 8.40 4.86 8.89L4.86 8.89L4.86 8.89Q4.86 9.18 4.75 9.74L4.75 9.74L4.75 9.74Q4.65 10.30 4.44 11.28L4.44 11.28L4.44 11.28Q4.03 13.12 3.79 14.59L3.79 14.59L3.79 14.59Q3.54 16.06 3.54 17.35L3.54 17.35L3.54 17.35Q3.54 17.84 3.63 18.12L3.63 18.12L3.63 18.12Q3.72 18.40 3.92 18.61L3.92 18.61L3.92 18.61Q3.61 18.89 3.22 19.03L3.22 19.03L3.22 19.03Q2.83 19.18 2.45 19.18L2.45 19.18ZM14 17.54L14 17.54Q14 18.31 14.36 18.61L14.36 18.61L14.36 18.61Q13.66 19.18 12.89 19.18L12.89 19.18L12.89 19.18Q12.28 19.18 11.94 18.82L11.94 18.82L11.94 18.82Q11.61 18.45 11.61 17.78L11.61 17.78L11.61 17.78Q11.61 17.53 11.68 17.14L11.68 17.14L11.54 17.07L11.54 17.07Q11.10 18.06 10.35 18.62L10.35 18.62L10.35 18.62Q9.59 19.18 8.68 19.18L8.68 19.18L8.68 19.18Q7.91 19.18 7.32 18.77L7.32 18.77L7.32 18.77Q6.73 18.37 6.41 17.62L6.41 17.62L6.41 17.62Q6.09 16.87 6.09 15.89L6.09 15.89L6.09 15.89Q6.09 14.32 6.80 13.08L6.80 13.08L6.80 13.08Q7.50 11.83 8.76 11.13L8.76 11.13L8.76 11.13Q10.01 10.43 11.59 10.43L11.59 10.43L11.59 10.43Q12.19 10.43 12.78 10.54L12.78 10.54L12.78 10.54Q12.89 10.79 12.94 11.14L12.94 11.14L12.94 11.14Q13.43 10.78 14.04 10.78L14.04 10.78L14.04 10.78Q14.49 10.78 14.73 11.02L14.73 11.02L14.73 11.02Q14.97 11.26 14.97 11.70L14.97 11.70L14.97 11.70Q14.97 12.00 14.88 12.45L14.88 12.45L14.88 12.45Q14.78 12.89 14.60 13.68L14.60 13.68L14.60 13.68Q14.31 14.98 14.15 15.85L14.15 15.85L14.15 15.85Q14 16.72 14 17.54L14 17.54ZM9.70 17.19L9.70 17.19Q10.84 17.19 11.54 15.80L11.54 15.80L11.54 15.80Q12.25 14.41 12.57 11.52L12.57 11.52L12.57 11.52Q11.38 11.61 10.44 12.16L10.44 12.16L10.44 12.16Q9.51 12.71 8.98 13.60L8.98 13.60L8.98 13.60Q8.46 14.49 8.46 15.54L8.46 15.54L8.46 15.54Q8.46 16.32 8.79 16.76L8.79 16.76L8.79 16.76Q9.11 17.19 9.70 17.19L9.70 17.19ZM17.44 16.00L17.44 16.00Q17.07 16.00 16.86 15.80L16.86 15.80L16.86 15.80Q16.65 15.60 16.65 15.11L16.65 15.11L16.65 15.11Q16.65 14.46 16.98 13.79L16.98 13.79L16.98 13.79Q17.29 13.87 17.68 13.87L17.68 13.87L17.68 13.87Q18.14 13.87 18.56 13.78L18.56 13.78L18.56 13.78Q18.98 13.68 19.63 13.48L19.63 13.48L19.63 13.48Q20.24 13.30 20.64 13.21L20.64 13.21L20.64 13.21Q21.03 13.12 21.46 13.12L21.46 13.12L21.46 13.12Q21.85 13.12 22.06 13.32L22.06 13.32L22.06 13.32Q22.27 13.52 22.27 14.01L22.27 14.01L22.27 14.01Q22.27 14.62 21.94 15.33L21.94 15.33L21.94 15.33Q21.63 15.25 21.24 15.25L21.24 15.25L21.24 15.25Q20.78 15.25 20.34 15.34L20.34 15.34L20.34 15.34Q19.91 15.44 19.28 15.64L19.28 15.64L19.28 15.64Q18.66 15.82 18.27 15.91L18.27 15.91L18.27 15.91Q17.88 16.00 17.44 16.00L17.44 16.00ZM24.60 16.23L24.61 14.38L24.61 14.38Q24.61 13.08 24.45 12.26L24.45 12.26L24.45 12.26Q24.29 11.44 23.80 10.93L23.80 10.93L23.80 10.93Q24.44 10.43 25.20 10.43L25.20 10.43L25.20 10.43Q25.82 10.43 26.19 10.78L26.19 10.78L26.19 10.78Q26.56 11.13 26.75 11.96L26.75 11.96L26.75 11.96Q26.94 12.78 26.94 14.22L26.94 14.22L26.94 14.22Q26.94 16.63 26.89 17.67L26.89 17.67L27.03 17.67L27.03 17.67Q28.38 15.69 29.07 14.22L29.07 14.22L29.07 14.22Q29.76 12.74 29.76 12.03L29.76 12.03L29.76 12.03Q29.76 11.45 29.50 10.93L29.50 10.93L29.50 10.93Q29.85 10.70 30.26 10.56L30.26 10.56L30.26 10.56Q30.67 10.43 31.08 10.43L31.08 10.43L31.08 10.43Q31.58 10.43 31.86 10.72L31.86 10.72L31.86 10.72Q32.13 11.00 32.13 11.55L32.13 11.55L32.13 11.55Q32.13 12.25 31.54 13.52L31.54 13.52L31.54 13.52Q30.95 14.80 29.37 17.53L29.37 17.53L29.65 18.14L29.65 18.14Q29.16 18.59 28.37 18.89L28.37 18.89L28.37 18.89Q27.58 19.18 26.87 19.18L26.87 19.18L26.87 19.18Q26.03 19.18 25.54 18.89L25.54 18.89L25.54 18.89Q25.05 18.61 24.82 17.96L24.82 17.96L24.82 17.96Q24.60 17.32 24.60 16.23L24.60 16.23ZM37.11 19.18L37.11 19.18Q36.01 19.18 35.18 18.73L35.18 18.73L35.18 18.73Q34.36 18.27 33.91 17.44L33.91 17.44L33.91 17.44Q33.46 16.60 33.46 15.50L33.46 15.50L33.46 15.50Q33.46 14.03 34.12 12.87L34.12 12.87L34.12 12.87Q34.78 11.72 35.95 11.07L35.95 11.07L35.95 11.07Q37.13 10.43 38.61 10.43L38.61 10.43L38.61 10.43Q39.14 10.43 39.65 10.54L39.65 10.54L39.65 10.54Q39.80 10.98 39.79 11.51L39.79 11.51L39.79 11.51Q38.57 11.51 37.67 12.04L37.67 12.04L37.67 12.04Q36.78 12.57 36.30 13.49L36.30 13.49L36.30 13.49Q35.83 14.41 35.83 15.55L35.83 15.55L35.83 15.55Q35.83 16.74 36.25 17.34L36.25 17.34L36.25 17.34Q36.68 17.93 37.45 17.93L37.45 17.93L37.45 17.93Q38.43 17.93 39.09 17.14L39.09 17.14L39.09 17.14Q39.75 16.35 39.90 14.99L39.90 14.99L39.90 14.99Q38.82 14.36 38.82 13.19L38.82 13.19L38.82 13.19Q38.82 12.46 39.26 11.96L39.26 11.96L39.26 11.96Q39.70 11.47 40.35 11.47L40.35 11.47L40.35 11.47Q41.10 11.47 41.56 12.08L41.56 12.08L41.56 12.08Q42.01 12.70 42.01 13.73L42.01 13.73L42.01 13.73Q42.01 15.23 41.36 16.49L41.36 16.49L41.36 16.49Q40.71 17.74 39.59 18.46L39.59 18.46L39.59 18.46Q38.46 19.18 37.11 19.18L37.11 19.18ZM48.64 11.17L48.64 11.17Q49.11 11.17 49.29 11.32L49.29 11.32L49.29 11.32Q49.48 11.47 49.48 11.84L49.48 11.84L49.48 11.84Q49.48 12.19 49.25 12.68L49.25 12.68L49.25 12.68Q48.71 12.52 47.96 12.52L47.96 12.52L47.67 12.52L47.67 12.52Q47.29 13.82 47.05 14.99L47.05 14.99L47.05 14.99Q46.80 16.17 46.79 17.35L46.79 17.35L47.45 18.45L47.45 18.45Q47.05 18.80 46.60 18.99L46.60 18.99L46.60 18.99Q46.14 19.18 45.72 19.18L45.72 19.18L45.72 19.18Q45.09 19.18 44.73 18.85L44.73 18.85L44.73 18.85Q44.37 18.52 44.37 17.63L44.37 17.63L44.37 17.63Q44.37 16.95 44.54 16.09L44.54 16.09L44.54 16.09Q44.72 15.22 45.04 13.96L45.04 13.96L45.32 12.78L45.32 12.78Q44.95 12.81 44.77 12.81L44.77 12.81L44.77 12.81Q44.30 12.81 44.11 12.66L44.11 12.66L44.11 12.66Q43.93 12.52 43.93 12.15L43.93 12.15L43.93 12.15Q43.93 11.75 44.16 11.30L44.16 11.30L44.16 11.30Q44.67 11.47 45.46 11.47L45.46 11.47L45.54 11.47L45.54 11.38L45.54 11.38Q45.54 10.64 45.28 9.90L45.28 9.90L45.28 9.90Q45.68 9.52 46.23 9.29L46.23 9.29L46.23 9.29Q46.79 9.06 47.35 9.06L47.35 9.06L47.35 9.06Q47.87 9.06 48.08 9.28L48.08 9.28L48.08 9.28Q48.30 9.51 48.30 10.02L48.30 10.02L48.30 10.02Q48.30 10.35 48.06 11.20L48.06 11.20L48.06 11.20Q48.45 11.17 48.64 11.17L48.64 11.17ZM52.63 9.49L52.63 9.49Q52.05 9.49 51.70 9.22L51.70 9.22L51.70 9.22Q51.34 8.95 51.34 8.47L51.34 8.47L51.34 8.47Q51.34 7.88 51.84 7.51L51.84 7.51L51.84 7.51Q52.35 7.14 52.98 7.14L52.98 7.14L52.98 7.14Q53.55 7.14 53.91 7.41L53.91 7.41L53.91 7.41Q54.26 7.69 54.26 8.15L54.26 8.15L54.26 8.15Q54.26 8.74 53.78 9.11L53.78 9.11L53.78 9.11Q53.30 9.49 52.63 9.49L52.63 9.49ZM51.62 19.18L51.62 19.18Q50.90 19.18 50.58 18.82L50.58 18.82L50.58 18.82Q50.25 18.47 50.25 17.74L50.25 17.74L50.25 17.74Q50.25 17.18 50.51 15.83L50.51 15.83L50.51 15.83Q50.76 14.48 51.25 12.29L51.25 12.29L50.54 11.30L50.54 11.30Q51.07 10.91 51.69 10.67L51.69 10.67L51.69 10.67Q52.30 10.43 52.84 10.43L52.84 10.43L52.84 10.43Q53.35 10.43 53.57 10.65L53.57 10.65L53.57 10.65Q53.79 10.86 53.79 11.37L53.79 11.37L53.79 11.37Q53.79 11.56 53.47 12.92L53.47 12.92L53.47 12.92Q53.10 14.43 52.88 15.58L52.88 15.58L52.88 15.58Q52.65 16.72 52.65 17.54L52.65 17.54L52.65 17.54Q52.65 18.33 53.02 18.61L53.02 18.61L53.02 18.61Q52.36 19.18 51.62 19.18L51.62 19.18ZM56.97 19.18L56.97 19.18Q56.25 19.18 55.92 18.82L55.92 18.82L55.92 18.82Q55.59 18.45 55.59 17.74L55.59 17.74L55.59 17.74Q55.59 17.16 55.92 15.42L55.92 15.42L55.92 15.42Q56.24 13.68 56.60 12.14L56.60 12.14L55.92 11.19L55.92 11.19Q56.43 10.85 57.02 10.65L57.02 10.65L57.02 10.65Q57.60 10.44 58.13 10.44L58.13 10.44L58.13 10.44Q58.65 10.44 58.88 10.68L58.88 10.68L58.88 10.68Q59.12 10.92 59.12 11.40L59.12 11.40L59.12 11.40Q59.12 11.76 59.02 12.17L59.02 12.17L59.02 12.17Q58.93 12.59 58.76 12.92L58.76 12.92L58.90 12.99L58.90 12.99Q60.35 10.43 62.65 10.43L62.65 10.43L62.65 10.43Q63.53 10.43 63.96 10.86L63.96 10.86L63.96 10.86Q64.39 11.30 64.39 12.19L64.39 12.19L64.39 12.19Q64.39 12.70 64.29 13.23L64.29 13.23L64.29 13.23Q64.19 13.76 63.97 14.69L63.97 14.69L63.97 14.69Q63.74 15.60 63.62 16.25L63.62 16.25L63.62 16.25Q63.49 16.91 63.49 17.54L63.49 17.54L63.49 17.54Q63.49 18.26 63.74 18.61L63.74 18.61L63.74 18.61Q63.13 19.18 62.45 19.18L62.45 19.18L62.45 19.18Q61.74 19.18 61.42 18.82L61.42 18.82L61.42 18.82Q61.10 18.45 61.10 17.74L61.10 17.74L61.10 17.74Q61.10 17.18 61.22 16.58L61.22 16.58L61.22 16.58Q61.33 15.97 61.57 15.02L61.57 15.02L61.57 15.02Q61.77 14.25 61.86 13.82L61.86 13.82L61.86 13.82Q61.95 13.38 61.95 13.03L61.95 13.03L61.95 13.03Q61.95 12.24 61.32 12.24L61.32 12.24L61.32 12.24Q60.62 12.24 59.84 12.98L59.84 12.98L59.84 12.98Q59.05 13.72 58.53 14.95L58.53 14.95L58.53 14.95Q58.00 16.17 58.00 17.54L58.00 17.54L58.00 17.54Q58.00 18.26 58.25 18.61L58.25 18.61L58.25 18.61Q57.61 19.18 56.97 19.18L56.97 19.18ZM73.47 10.75L73.47 10.75Q73.88 10.75 74.09 10.96L74.09 10.96L74.09 10.96Q74.30 11.17 74.30 11.56L74.30 11.56L74.30 11.56Q74.30 14.36 73.61 16.76L73.61 16.76L73.61 16.76Q72.93 19.15 71.39 20.65L71.39 20.65L71.39 20.65Q69.86 22.15 67.47 22.15L67.47 22.15L67.47 22.15Q66.26 22.15 65.58 21.76L65.58 21.76L65.58 21.76Q64.90 21.38 64.90 20.69L64.90 20.69L64.90 20.69Q64.90 20.31 65.13 19.93L65.13 19.93L65.13 19.93Q65.35 19.54 65.69 19.33L65.69 19.33L65.69 19.33Q66.32 20.40 67.70 20.40L67.70 20.40L67.70 20.40Q68.84 20.40 69.87 19.54L69.87 19.54L69.87 19.54Q70.90 18.68 71.47 16.72L71.47 16.72L71.12 16.72L71.12 16.72Q70.67 17.67 69.87 18.19L69.87 18.19L69.87 18.19Q69.08 18.72 68.14 18.72L68.14 18.72L68.14 18.72Q67.35 18.72 66.75 18.33L66.75 18.33L66.75 18.33Q66.14 17.93 65.81 17.21L65.81 17.21L65.81 17.21Q65.48 16.49 65.48 15.54L65.48 15.54L65.48 15.54Q65.48 14.07 66.16 12.91L66.16 12.91L66.16 12.91Q66.85 11.75 68.10 11.09L68.10 11.09L68.10 11.09Q69.36 10.43 70.99 10.43L70.99 10.43L70.99 10.43Q71.65 10.43 72.18 10.54L72.18 10.54L72.18 10.54Q72.30 10.84 72.34 11.17L72.34 11.17L72.34 11.17Q72.84 10.75 73.47 10.75L73.47 10.75ZM71.97 11.52L71.99 13.20L71.99 13.20Q72.00 12.94 72.00 12.38L72.00 12.38L72.00 12.38Q72.00 11.82 71.99 11.52L71.99 11.52L71.97 11.52ZM69.17 17.14L69.17 17.14Q69.78 17.14 70.41 16.63L70.41 16.63L70.41 16.63Q71.05 16.11 71.51 14.85L71.51 14.85L71.51 14.85Q71.97 13.59 71.97 11.52L71.97 11.52L71.97 11.52Q70.78 11.59 69.85 12.12L69.85 12.12L69.85 12.12Q68.91 12.64 68.38 13.48L68.38 13.48L68.38 13.48Q67.84 14.32 67.84 15.34L67.84 15.34L67.84 15.34Q67.84 16.20 68.19 16.67L68.19 16.67L68.19 16.67Q68.54 17.14 69.17 17.14L69.17 17.14Z"></path></g><!----><!----><g data-v-423bf9ae="" id="c988ae5c-2d80-4186-b546-625914847223" fill="#36231D" transform="matrix(5.917159562968884,0,0,5.917159562968884,-2.0118544652057153,110.5739650052325)"><path d="M9.74 3.92L9.18 3.92L9.16 3.92L7.69 3.92L7.69 4.19C7.69 4.34 7.77 4.42 7.95 4.44L8.08 4.44C8.13 4.44 8.22 4.45 8.34 4.45C8.47 4.45 8.61 4.47 8.76 4.47L5.56 12.32C5.47 12.53 5.40 12.75 5.35 13.01C5.29 12.77 5.22 12.53 5.14 12.32L1.90 4.47C2.06 4.47 2.21 4.45 2.34 4.45C2.46 4.45 2.55 4.44 2.60 4.44L2.72 4.44C2.90 4.42 3.00 4.34 3.00 4.19L3.00 3.92L1.50 3.92L0.94 3.92L0.34 3.92L0.34 4.19C0.34 4.34 0.43 4.42 0.62 4.44L0.71 4.44C0.76 4.44 0.83 4.45 0.90 4.45C0.97 4.45 1.06 4.47 1.16 4.47L5.03 13.82L5.66 13.82L9.52 4.47C9.62 4.47 9.72 4.45 9.79 4.45C9.86 4.45 9.93 4.44 9.97 4.44L10.05 4.44C10.23 4.42 10.33 4.34 10.33 4.19L10.33 3.92ZM27.02 8.86C27.02 8.11 26.89 7.41 26.67 6.79C26.45 6.17 26.12 5.64 25.70 5.19C25.28 4.75 24.79 4.40 24.22 4.16C23.65 3.92 22.99 3.79 22.29 3.79C21.59 3.79 20.96 3.92 20.38 4.16C19.81 4.40 19.31 4.75 18.89 5.19C18.47 5.64 18.14 6.17 17.92 6.79C17.70 7.41 17.57 8.11 17.57 8.86C17.57 9.63 17.70 10.33 17.92 10.95C18.14 11.56 18.47 12.10 18.89 12.54C19.31 12.99 19.81 13.33 20.38 13.57C20.96 13.80 21.59 13.93 22.29 13.93C22.99 13.93 23.65 13.80 24.22 13.57C24.79 13.33 25.28 12.99 25.70 12.54C26.12 12.10 26.45 11.56 26.67 10.95C26.89 10.33 27.02 9.63 27.02 8.86ZM26.26 8.86C26.26 9.56 26.18 10.18 25.98 10.72C25.79 11.27 25.52 11.75 25.17 12.12C24.82 12.50 24.40 12.81 23.91 13.01C23.42 13.20 22.89 13.30 22.29 13.30C21.70 13.30 21.17 13.20 20.68 13.01C20.19 12.81 19.77 12.50 19.42 12.12C19.07 11.75 18.79 11.27 18.59 10.72C18.40 10.18 18.31 9.56 18.31 8.86C18.31 8.18 18.40 7.55 18.59 7.00C18.79 6.45 19.07 5.98 19.42 5.60C19.77 5.22 20.19 4.91 20.68 4.72C21.17 4.52 21.70 4.41 22.29 4.41C22.89 4.41 23.42 4.52 23.91 4.72C24.40 4.91 24.82 5.22 25.17 5.60C25.52 5.98 25.79 6.45 25.98 7.00C26.18 7.55 26.26 8.18 26.26 8.86ZM42.73 3.92L42.53 3.92L35.24 3.92L35.03 3.92L34.93 3.92L34.93 5.96L35.28 5.96C35.48 5.96 35.56 5.85 35.57 5.63C35.57 5.53 35.60 5.17 35.63 4.52L38.53 4.52L38.53 13.26C38.36 13.26 38.22 13.27 38.08 13.27C37.94 13.27 37.83 13.29 37.76 13.29L37.63 13.29C37.45 13.30 37.35 13.38 37.35 13.54L37.35 13.82L38.53 13.82L39.24 13.82L40.43 13.82L40.43 13.54C40.43 13.38 40.33 13.30 40.15 13.29L40.01 13.29C39.94 13.29 39.84 13.27 39.70 13.27C39.56 13.27 39.41 13.26 39.24 13.26L39.24 4.52L42.13 4.52C42.17 5.24 42.18 5.60 42.18 5.63C42.20 5.85 42.29 5.96 42.49 5.96L42.83 5.96L42.83 3.92ZM52.12 3.92L50.93 3.92L50.93 4.19C50.93 4.34 51.03 4.42 51.21 4.44L51.35 4.44C51.42 4.44 51.52 4.45 51.66 4.45C51.80 4.45 51.95 4.47 52.12 4.47L52.12 13.26C51.95 13.26 51.80 13.27 51.66 13.27C51.52 13.27 51.42 13.29 51.35 13.29L51.21 13.29C51.03 13.30 50.95 13.38 50.95 13.54L50.95 13.82L52.12 13.82L58.06 13.82L58.06 13.22L58.06 11.76L57.71 11.76C57.51 11.76 57.43 11.89 57.41 12.11C57.41 12.14 57.40 12.19 57.40 12.29C57.40 12.39 57.40 12.53 57.39 12.74C57.37 12.95 57.36 13.09 57.36 13.22L52.84 13.22L52.84 9.09L56.78 9.09L56.78 8.51L52.84 8.51L52.84 4.51L57.36 4.51C57.39 5.12 57.41 5.50 57.41 5.63C57.43 5.85 57.51 5.96 57.71 5.96L58.06 5.96L58.06 4.51L58.06 3.92ZM85.15 3.92L85.08 3.92L84.52 3.92L84.41 3.92L83.01 3.92L83.01 4.19C83.01 4.34 83.10 4.42 83.29 4.44L83.40 4.44C83.45 4.44 83.52 4.45 83.64 4.45C83.75 4.45 83.87 4.47 84.01 4.47L81.42 8.64C81.35 8.75 81.30 8.85 81.26 8.95C81.21 9.04 81.17 9.16 81.13 9.25C81.09 9.16 81.05 9.04 81.00 8.95C80.96 8.85 80.91 8.75 80.84 8.64L78.23 4.47C78.37 4.47 78.50 4.45 78.61 4.45C78.72 4.45 78.81 4.44 78.86 4.44L78.96 4.44C79.14 4.42 79.24 4.34 79.24 4.19L79.24 3.92L77.84 3.92L77.73 3.92L77.17 3.92L77.10 3.92L76.65 3.92L76.65 4.19C76.65 4.34 76.75 4.42 76.93 4.44C77.17 4.45 77.35 4.47 77.45 4.47L80.77 9.73L80.77 13.26C80.60 13.26 80.44 13.27 80.30 13.27C80.16 13.27 80.07 13.29 80.00 13.29L79.87 13.29C79.69 13.30 79.59 13.38 79.59 13.54L79.59 13.82L80.77 13.82L81.48 13.82L82.66 13.82L82.66 13.54C82.66 13.38 82.57 13.30 82.39 13.29L82.25 13.29C82.18 13.29 82.08 13.27 81.94 13.27C81.80 13.27 81.65 13.26 81.48 13.26L81.48 9.73L84.80 4.47C84.91 4.47 85.08 4.45 85.32 4.44C85.50 4.42 85.60 4.34 85.60 4.19L85.60 3.92ZM102.34 8.86C102.34 8.11 102.21 7.41 101.99 6.79C101.77 6.17 101.44 5.64 101.02 5.19C100.60 4.75 100.11 4.40 99.54 4.16C98.97 3.92 98.31 3.79 97.61 3.79C96.91 3.79 96.28 3.92 95.70 4.16C95.13 4.40 94.63 4.75 94.21 5.19C93.79 5.64 93.46 6.17 93.24 6.79C93.02 7.41 92.89 8.11 92.89 8.86C92.89 9.63 93.02 10.33 93.24 10.95C93.46 11.56 93.79 12.10 94.21 12.54C94.63 12.99 95.13 13.33 95.70 13.57C96.28 13.80 96.91 13.93 97.61 13.93C98.31 13.93 98.97 13.80 99.54 13.57C100.11 13.33 100.60 12.99 101.02 12.54C101.44 12.10 101.77 11.56 101.99 10.95C102.21 10.33 102.34 9.63 102.34 8.86ZM101.58 8.86C101.58 9.56 101.50 10.18 101.30 10.72C101.11 11.27 100.84 11.75 100.49 12.12C100.14 12.50 99.72 12.81 99.23 13.01C98.74 13.20 98.21 13.30 97.61 13.30C97.02 13.30 96.49 13.20 96.00 13.01C95.51 12.81 95.09 12.50 94.74 12.12C94.39 11.75 94.11 11.27 93.91 10.72C93.72 10.18 93.63 9.56 93.63 8.86C93.63 8.18 93.72 7.55 93.91 7.00C94.11 6.45 94.39 5.98 94.74 5.60C95.09 5.22 95.51 4.91 96.00 4.72C96.49 4.52 97.02 4.41 97.61 4.41C98.21 4.41 98.74 4.52 99.23 4.72C99.72 4.91 100.14 5.22 100.49 5.60C100.84 5.98 101.11 6.45 101.30 7.00C101.50 7.55 101.58 8.18 101.58 8.86ZM118.58 3.92L117.87 3.92L116.51 3.92L116.51 4.19C116.51 4.34 116.61 4.42 116.79 4.44L116.96 4.44C117.05 4.44 117.19 4.45 117.36 4.45C117.53 4.45 117.70 4.47 117.87 4.47L117.87 10.04C117.87 10.50 117.80 10.92 117.66 11.33C117.52 11.73 117.32 12.08 117.05 12.38C116.79 12.67 116.48 12.89 116.10 13.06C115.72 13.23 115.30 13.31 114.83 13.31C114.35 13.31 113.92 13.23 113.54 13.06C113.16 12.89 112.84 12.66 112.59 12.36C112.32 12.07 112.14 11.72 112 11.33C111.86 10.93 111.79 10.50 111.79 10.04L111.79 4.47C111.96 4.47 112.13 4.45 112.29 4.45C112.46 4.45 112.60 4.44 112.70 4.44L112.87 4.44C113.05 4.42 113.15 4.34 113.15 4.19L113.15 3.92L111.79 3.92L111.08 3.92L109.90 3.92L109.90 4.19C109.90 4.34 109.98 4.42 110.17 4.44L110.31 4.44C110.38 4.44 110.47 4.45 110.61 4.45C110.75 4.45 110.91 4.47 111.08 4.47L111.08 10.04C111.08 10.58 111.16 11.09 111.33 11.56C111.50 12.04 111.75 12.46 112.07 12.81C112.39 13.16 112.80 13.44 113.26 13.64C113.72 13.83 114.25 13.93 114.83 13.93C115.40 13.93 115.92 13.83 116.38 13.64C116.84 13.44 117.25 13.16 117.57 12.81C117.89 12.46 118.15 12.04 118.31 11.56C118.48 11.09 118.58 10.58 118.58 10.04L118.58 4.47C118.75 4.47 118.89 4.45 119.03 4.45C119.17 4.45 119.28 4.44 119.35 4.44L119.48 4.44C119.66 4.42 119.76 4.34 119.76 4.19L119.76 3.92ZM135.77 13.29L135.67 13.29L135.49 13.29C135.41 13.29 135.32 13.27 135.24 13.27L132.27 9.53C132.19 9.42 132.08 9.32 131.96 9.25C132.40 9.21 132.79 9.11 133.14 8.96C133.49 8.81 133.77 8.61 134.02 8.37C134.26 8.13 134.46 7.85 134.58 7.55C134.71 7.24 134.78 6.89 134.78 6.51C134.78 5.66 134.50 5.03 133.94 4.58C133.38 4.14 132.52 3.92 131.38 3.92L128.97 3.92L127.79 3.92L127.79 4.19C127.79 4.34 127.88 4.42 128.06 4.44L128.20 4.44C128.27 4.44 128.37 4.45 128.51 4.45C128.65 4.45 128.80 4.47 128.97 4.47L128.97 13.26C128.80 13.26 128.65 13.27 128.51 13.27C128.37 13.27 128.27 13.29 128.20 13.29L128.06 13.29C127.88 13.30 127.78 13.38 127.78 13.54L127.78 13.82L128.97 13.82L129.68 13.82L130.86 13.82L130.86 13.54C130.86 13.38 130.76 13.30 130.58 13.29L130.44 13.29C130.37 13.29 130.27 13.27 130.13 13.27C129.99 13.27 129.85 13.26 129.68 13.26L129.68 9.34L130.86 9.34C131.05 9.34 131.19 9.35 131.28 9.39C131.36 9.44 131.45 9.52 131.53 9.62L134.71 13.64C134.76 13.71 134.81 13.75 134.86 13.78C134.92 13.80 134.99 13.82 135.06 13.82L135.13 13.82L135.67 13.82L136.04 13.82L136.04 13.54C136.04 13.38 135.95 13.30 135.77 13.29ZM131.28 8.81L129.68 8.81L129.68 4.48L131.38 4.48C132.26 4.48 132.93 4.66 133.39 5.00C133.85 5.33 134.08 5.87 134.08 6.57C134.08 6.92 134.02 7.21 133.90 7.49C133.77 7.77 133.57 7.99 133.34 8.19C133.10 8.39 132.80 8.55 132.45 8.65C132.10 8.75 131.71 8.81 131.28 8.81ZM166.49 4.44C166.67 4.42 166.77 4.34 166.77 4.19L166.77 3.92L165.59 3.92L165.09 3.92C165.02 3.92 164.98 3.92 164.93 3.93C164.89 3.95 164.86 3.99 164.82 4.05L160.93 10.92C160.89 10.99 160.86 11.06 160.83 11.13C160.80 11.20 160.78 11.28 160.75 11.35C160.69 11.20 160.64 11.06 160.57 10.93L156.56 4.05C156.52 3.99 156.49 3.95 156.45 3.93C156.41 3.92 156.37 3.92 156.30 3.92L155.81 3.92L154.62 3.92L154.62 4.19C154.62 4.34 154.71 4.42 154.90 4.44L155.04 4.44C155.11 4.44 155.20 4.45 155.34 4.45C155.48 4.45 155.64 4.47 155.81 4.47L155.81 13.26C155.64 13.26 155.48 13.27 155.34 13.27C155.20 13.27 155.11 13.29 155.04 13.29L154.90 13.29C154.71 13.30 154.62 13.38 154.62 13.54L154.62 13.82L155.81 13.82L156.42 13.82L157.64 13.82L157.64 13.54C157.64 13.38 157.54 13.30 157.36 13.29L157.22 13.29C157.15 13.29 157.04 13.27 156.90 13.27C156.76 13.27 156.59 13.26 156.42 13.26L156.42 5.38C156.42 5.25 156.42 5.12 156.41 4.98L160.41 11.91C160.48 12.04 160.58 12.10 160.69 12.10L160.80 12.10C160.93 12.10 161.01 12.04 161.08 11.91L164.98 4.98C164.96 5.12 164.96 5.25 164.96 5.38L164.96 13.26C164.79 13.26 164.63 13.27 164.49 13.27C164.35 13.27 164.23 13.29 164.16 13.29L164.02 13.29C163.84 13.30 163.74 13.38 163.74 13.54L163.74 13.82L164.96 13.82L165.59 13.82L166.77 13.82L166.77 13.54C166.77 13.38 166.67 13.30 166.49 13.29L166.36 13.29C166.29 13.29 166.18 13.27 166.04 13.27C165.90 13.27 165.76 13.26 165.59 13.26L165.59 4.47C165.76 4.47 165.90 4.45 166.04 4.45C166.18 4.45 166.29 4.44 166.36 4.44ZM177.93 4.44C178.11 4.42 178.19 4.34 178.19 4.19L178.19 3.91L177.02 3.91L176.30 3.91L175.11 3.91L175.11 4.19C175.11 4.34 175.21 4.42 175.39 4.44L175.53 4.44C175.60 4.44 175.70 4.45 175.84 4.45C175.98 4.45 176.13 4.47 176.30 4.47L176.30 13.26C176.13 13.26 175.98 13.27 175.84 13.27C175.70 13.27 175.60 13.29 175.53 13.29L175.39 13.29C175.21 13.30 175.11 13.38 175.11 13.54L175.11 13.82L176.30 13.82L177.02 13.82L178.19 13.82L178.19 13.54C178.19 13.38 178.11 13.30 177.93 13.29L177.79 13.29C177.72 13.29 177.62 13.27 177.48 13.27C177.34 13.27 177.18 13.26 177.02 13.26L177.02 4.47C177.18 4.47 177.34 4.45 177.48 4.45C177.62 4.45 177.72 4.44 177.79 4.44ZM195.37 3.92L194.74 3.92L193.52 3.92L193.52 4.19C193.52 4.34 193.62 4.42 193.80 4.44L193.94 4.44C194.01 4.44 194.12 4.45 194.26 4.45C194.40 4.45 194.57 4.47 194.74 4.47L194.74 12.22C194.74 12.35 194.74 12.49 194.75 12.63L188.34 4.05C188.30 3.99 188.27 3.95 188.23 3.93C188.19 3.92 188.15 3.91 188.08 3.91L187.73 3.91L186.54 3.91L186.54 4.19C186.54 4.34 186.63 4.42 186.82 4.44L186.96 4.44C187.03 4.44 187.12 4.45 187.26 4.45C187.40 4.45 187.56 4.47 187.73 4.47L187.73 13.26C187.56 13.26 187.40 13.27 187.26 13.27C187.12 13.27 187.03 13.29 186.96 13.29L186.82 13.29C186.63 13.30 186.54 13.38 186.54 13.54L186.54 13.82L187.73 13.82L188.34 13.82L189.56 13.82L189.56 13.54C189.56 13.38 189.46 13.30 189.28 13.29L189.14 13.29C189.07 13.29 188.94 13.27 188.80 13.27C188.66 13.27 188.51 13.26 188.34 13.26L188.34 5.49C188.34 5.36 188.34 5.22 188.33 5.08L194.77 13.68C194.84 13.78 194.91 13.82 195.02 13.82L195.37 13.82L195.37 4.47C195.54 4.47 195.68 4.45 195.82 4.45C195.96 4.45 196.07 4.44 196.14 4.44L196.27 4.44C196.45 4.42 196.55 4.34 196.55 4.19L196.55 3.92ZM213.58 6.80C213.36 6.19 213.04 5.68 212.62 5.25C212.20 4.82 211.71 4.48 211.13 4.26C210.56 4.03 209.90 3.92 209.20 3.92L205.77 3.92L204.58 3.92L204.58 4.19C204.58 4.34 204.68 4.42 204.86 4.44L205.00 4.44C205.07 4.44 205.17 4.45 205.31 4.45C205.45 4.45 205.60 4.47 205.77 4.47L205.77 13.26C205.60 13.26 205.45 13.27 205.31 13.27C205.17 13.27 205.07 13.29 205.00 13.29L204.86 13.29C204.68 13.30 204.58 13.38 204.58 13.54L204.58 13.82L205.77 13.82L209.20 13.82C209.90 13.82 210.56 13.71 211.13 13.48C211.71 13.26 212.20 12.92 212.62 12.49C213.04 12.05 213.36 11.54 213.58 10.92C213.81 10.30 213.93 9.63 213.93 8.86C213.93 8.11 213.81 7.42 213.58 6.80ZM212.90 10.72C212.70 11.27 212.45 11.72 212.10 12.10C211.75 12.47 211.33 12.75 210.84 12.95C210.35 13.15 209.80 13.24 209.20 13.24L206.49 13.24L206.49 4.49L209.20 4.49C209.80 4.49 210.35 4.59 210.84 4.79C211.33 4.98 211.75 5.26 212.10 5.64C212.45 6.02 212.70 6.47 212.90 7.01C213.09 7.56 213.19 8.18 213.19 8.86C213.19 9.56 213.09 10.18 212.90 10.72ZM223.34 3.91L222.70 3.91L222.70 7.91L222.70 8.51C222.70 8.69 222.70 8.89 222.71 9.09C222.71 9.28 222.74 9.49 222.75 9.70C222.77 9.91 222.77 10.14 222.78 10.40L223.24 10.40C223.26 10.14 223.27 9.91 223.29 9.70C223.30 9.49 223.31 9.28 223.31 9.09C223.31 8.89 223.34 8.69 223.34 8.51L223.34 7.91ZM222.35 13.27C222.35 13.45 222.40 13.61 222.53 13.73C222.66 13.86 222.81 13.92 222.99 13.92C223.08 13.92 223.16 13.90 223.24 13.87C223.33 13.85 223.40 13.79 223.45 13.73C223.51 13.68 223.57 13.62 223.59 13.54C223.62 13.45 223.65 13.37 223.65 13.27C223.65 13.19 223.62 13.10 223.59 13.02C223.57 12.94 223.51 12.88 223.45 12.82C223.40 12.77 223.33 12.71 223.24 12.68C223.16 12.66 223.08 12.63 222.99 12.63C222.89 12.63 222.82 12.66 222.74 12.68C222.66 12.71 222.59 12.77 222.53 12.82C222.47 12.88 222.42 12.94 222.39 13.02C222.36 13.10 222.35 13.19 222.35 13.27Z"></path></g></svg>